# xmcd
#
# Track frame offsets:
#	150
#	15005
#	25402
#	40550
#	49952
#	63907
#	86767
#	98125
#	118195
#	134837
#
# Disc length: 2254 seconds
#
# Revision: 0
# Processed by: cddbd v1.5.1PL2 Copyright (c) Steve Scherf et al.
# Submitted via: dBpowerAMP V4.0
#
DISCID=7f08cc0a
DTITLE=The Underdogs - Wasting Our Time
DYEAR=1970
DGENRE=Bluesrock
TTITLE0=Tomotroes Child
TTITLE1=Wasting My Time
TTITLE2=Old Grey Dog
TTITLE3=Name the Day
TTITLE4=Ait´s a Blessing
TTITLE5=Every Little Thing
TTITLE6=Is He Going To Die
TTITLE7=Duchless of Montrose
TTITLE8=Clover in the Air
TTITLE9=Garden of Eden
EXTD=
EXTT0=
EXTT1=
EXTT2=
EXTT3=
EXTT4=
EXTT5=
EXTT6=
EXTT7=
EXTT8=
EXTT9=
PLAYORDER=
